<?xml version="1.0" encoding="iso-8859-1"?>
<!-- Generator: Adobe Illustrator 19.0.0, SVG Export Plug-In . SVG Version: 6.00 Build 0)  -->
<svg version="1.1" id="Capa_1" xmlns="http://www.w3.org/2000/svg" xmlns:xlink="http://www.w3.org/1999/xlink" x="0px" y="0px"
	 viewBox="0 0 512 512" style="enable-background:new 0 0 512 512;" xml:space="preserve">
<path style="fill:#3594C7;" d="M220.984,0c-54.654,0-99.119,44.464-99.119,99.119c0,54.654,44.464,99.118,99.119,99.118
	c54.654,0,99.118-44.464,99.118-99.118C320.103,44.464,275.639,0,220.984,0z"/>
<path style="fill:#16DCFA;" d="M220.984,0c-54.654,0-99.119,44.464-99.119,99.119c0,54.654,44.464,99.118,99.119,99.118V0z"/>
<path style="fill:#3594C7;" d="M279.479,219h-116.99c-41.355,0-75.326,33.746-75.326,75.101v146.99
	c0,24.813,20.513,44.909,45.326,44.909h176.99c24.813,0,44.685-20.096,44.685-44.909v-146.99
	C354.164,252.746,320.834,219,279.479,219z"/>
<path style="fill:#16DCFA;" d="M220.984,219H162.49c-41.355,0-75.326,33.746-75.326,75.101v146.99
	c0,24.813,20.513,44.909,45.326,44.909h88.495L220.984,219L220.984,219z"/>
<path style="fill:#C6BDD6;" d="M325.72,313.763c-54.654,0-99.118,44.464-99.118,99.118S271.066,512,325.72,512
	s99.118-44.464,99.118-99.119C424.838,358.228,380.374,313.763,325.72,313.763z"/>
<path style="fill:#F5F2FC;" d="M325.72,313.763c-54.654,0-99.118,44.464-99.118,99.118S271.066,512,325.72,512V313.763z"/>
<path style="fill:#3594C7;" d="M361.364,397.881h-20.645v-20.645c0-8.284-6.716-15-15-15s-15,6.716-15,15v20.645h-20.645
	c-8.284,0-15,6.716-15,15s6.716,15,15,15h20.645v20.645c0,8.284,6.716,15,15,15s15-6.716,15-15v-20.645h20.645
	c8.284,0,15-6.716,15-15S369.648,397.881,361.364,397.881z"/>
<path style="fill:#16DCFA;" d="M325.72,362.237c-8.284,0-15,6.716-15,15v20.645h-20.645c-8.284,0-15,6.716-15,15s6.716,15,15,15
	h20.645v20.645c0,8.284,6.716,15,15,15V362.237z"/>
<g>
</g>
<g>
</g>
<g>
</g>
<g>
</g>
<g>
</g>
<g>
</g>
<g>
</g>
<g>
</g>
<g>
</g>
<g>
</g>
<g>
</g>
<g>
</g>
<g>
</g>
<g>
</g>
<g>
</g>
</svg>
