<svg id="Capa_1" enable-background="new 0 0 512 512" height="512" viewBox="0 0 512 512" width="512" xmlns="http://www.w3.org/2000/svg"><g><path d="m456 512h-400c-8.284 0-15-6.716-15-15v-462c0-8.284 6.716-15 15-15h400c8.284 0 15 6.716 15 15v462c0 8.284-6.716 15-15 15zm-85-437c-16.543 0-30 13.458-30 30s13.457 30 30 30 30-13.458 30-30-13.457-30-30-30zm-115 0c-16.543 0-30 13.458-30 30s13.457 30 30 30 30-13.458 30-30-13.457-30-30-30zm-115 0c-16.543 0-30 13.458-30 30s13.457 30 30 30 30-13.458 30-30-13.457-30-30-30z" fill="#fffbf4"/><path d="m471 497v-462c0-8.284-6.716-15-15-15h-200v55c16.543 0 30 13.458 30 30s-13.457 30-30 30v377h200c8.284 0 15-6.716 15-15zm-100-362c-16.543 0-30-13.458-30-30s13.457-30 30-30 30 13.458 30 30-13.457 30-30 30z" fill="#f9f4c8"/><path d="m356 15v74.983c0 8.284 6.716 15 15 15 8.284 0 15-6.716 15-15v-74.983c0-8.284-6.716-15-15-15-8.284 0-15 6.716-15 15z" fill="#3c4655"/><path d="m241 15v74.983c0 8.284 6.716 15 15 15 8.284 0 15-6.716 15-15v-74.983c0-8.284-6.716-15-15-15-8.284 0-15 6.716-15 15z" fill="#556e82"/><path d="m126 15v74.983c0 8.284 6.716 15 15 15 8.284 0 15-6.716 15-15v-74.983c0-8.284-6.716-15-15-15-8.284 0-15 6.716-15 15z" fill="#556e82"/><g><path d="m271 89.983v-74.983c0-8.284-6.716-15-15-15v104.983c8.284 0 15-6.716 15-15z" fill="#3c4655"/></g><path d="m382.424 338.029-21.785-12.578c.242-2.838.361-5.645.361-8.451s-.119-5.613-.361-8.452l21.785-12.577c3.445-1.989 5.959-5.265 6.989-9.108 1.029-3.843.49-7.937-1.499-11.382l-30-51.962c-4.143-7.175-13.315-9.631-20.49-5.49l-21.82 12.598c-4.628-3.192-9.504-6.003-14.604-8.417v-25.21c0-8.284-6.716-15-15-15h-60c-8.284 0-15 6.716-15 15v25.21c-5.099 2.414-9.976 5.224-14.603 8.417l-21.82-12.598c-3.444-1.989-7.539-2.527-11.382-1.499-3.843 1.029-7.119 3.543-9.108 6.989l-30 51.962c-1.989 3.445-2.528 7.54-1.499 11.382s3.543 7.119 6.989 9.108l21.784 12.577c-.242 2.838-.361 5.645-.361 8.452s.119 5.613.361 8.451l-21.784 12.578c-7.174 4.142-9.632 13.316-5.49 20.49l30 51.962c4.141 7.174 13.314 9.632 20.49 5.491l21.82-12.598c4.626 3.192 9.503 6.003 14.603 8.417v25.209c0 8.284 6.716 15 15 15h60c8.284 0 15-6.716 15-15v-25.21c5.1-2.414 9.977-5.224 14.603-8.417l21.821 12.598c7.174 4.141 16.348 1.684 20.49-5.491l30-51.962c4.143-7.173 1.685-16.347-5.49-20.489zm-126.424 16.471c-20.677 0-37.5-16.823-37.5-37.5s16.823-37.5 37.5-37.5c20.679 0 37.5 16.823 37.5 37.5s-16.821 37.5-37.5 37.5z" fill="#556e82"/><g><path d="m382.424 338.029-21.785-12.578c.242-2.838.361-5.645.361-8.451s-.119-5.613-.361-8.452l21.785-12.577c3.445-1.989 5.959-5.265 6.989-9.108 1.029-3.843.49-7.937-1.499-11.382l-30-51.962c-4.143-7.175-13.315-9.631-20.49-5.49l-21.82 12.598c-4.628-3.192-9.504-6.003-14.604-8.417v-25.21c0-8.284-6.716-15-15-15h-30v97.5c20.679 0 37.5 16.823 37.5 37.5s-16.821 37.5-37.5 37.5v97.5h30c8.284 0 15-6.716 15-15v-25.21c5.1-2.414 9.977-5.224 14.603-8.417l21.821 12.598c7.174 4.141 16.348 1.684 20.49-5.491l30-51.962c4.143-7.173 1.685-16.347-5.49-20.489z" fill="#3c4655"/></g></g></svg>